<svg xmlns="http://www.w3.org/2000/svg" width="77" height="47" fill="none" viewBox="0 0 77 47"><path fill="#fff" d="M44.917 7.557a2.26 2.26 0 0 0 2.261 2.262h8.583c1.008 0 1.512 1.219.799 1.93L45.578 22.73a2.26 2.26 0 0 0-.664 1.6v3.755c0 1.562 1.55 2.645 2.92 1.9a20.4 20.4 0 0 0 3.868-2.727c.465-.416 1.18-.42 1.622.023l7.999 7.999a1.1 1.1 0 0 1-.013 1.585 33.82 33.82 0 0 1-23.183 9.154c-8.964 0-17.117-3.477-23.184-9.154a1.1 1.1 0 0 1-.012-1.585l7.998-7.998c.442-.442 1.157-.44 1.622-.024a20.4 20.4 0 0 0 3.869 2.727c1.372.745 2.919-.338 2.919-1.9V24.33c0-.6-.24-1.176-.664-1.6L19.693 11.749c-.713-.713-.209-1.93.8-1.93h8.582a2.26 2.26 0 0 0 2.262-2.262V1.9a1.13 1.13 0 0 1 1.13-1.131H43.78A1.13 1.13 0 0 1 44.91 1.9v5.657z"/><mask id="a" width="48" height="47" x="14" y="0" maskUnits="userSpaceOnUse" style="mask-type:alpha"><path fill="#d9d9d9" d="M44.917 7.556a2.26 2.26 0 0 0 2.261 2.262h8.583c1.008 0 1.512 1.219.799 1.93L45.578 22.73a2.26 2.26 0 0 0-.664 1.6v3.755c0 1.562 1.55 2.645 2.92 1.9a20.4 20.4 0 0 0 3.868-2.727c.465-.416 1.18-.42 1.622.024l7.999 7.998a1.1 1.1 0 0 1-.013 1.585 33.82 33.82 0 0 1-23.183 9.154c-8.964 0-17.117-3.477-23.184-9.154a1.1 1.1 0 0 1-.012-1.585l7.998-7.998c.442-.442 1.157-.44 1.622-.024a20.4 20.4 0 0 0 3.869 2.727c1.372.745 2.919-.338 2.919-1.9V24.33c0-.6-.24-1.176-.664-1.6L19.693 11.748c-.713-.713-.209-1.93.8-1.93h8.582a2.26 2.26 0 0 0 2.262-2.262V1.899c0-.625.506-1.13 1.13-1.13H43.78a1.13 1.13 0 0 1 1.131 1.13v5.657z"/></mask><g mask="url(#a)"><g filter="url(#b)"><ellipse cx="4.618" cy="21.501" fill="#fff" rx="4.618" ry="21.501" transform="matrix(0 -1 -1 0 59.498 51.362)"/></g><g filter="url(#c)"><ellipse cx="4.618" cy="21.501" fill="#fff" rx="4.618" ry="21.501" transform="rotate(68.34 8.636 77.923)scale(-1 1)"/></g><g filter="url(#d)"><ellipse cx="19.801" cy="44.78" fill="#fff" rx="4.618" ry="21.501" transform="rotate(-68.34 19.801 44.78)"/></g><g filter="url(#e)"><ellipse cx="46.528" cy="29.66" fill="#fff" rx="3.715" ry="6.268" transform="rotate(-135.197 46.528 29.66)"/></g><g filter="url(#f)"><ellipse cx="48.443" cy="26.213" fill="#fff" rx="3.715" ry="6.268" transform="rotate(-135.197 48.443 26.213)"/></g><g filter="url(#g)"><ellipse cx="48.059" cy="7.065" fill="#fff" rx="3.715" ry="6.268" transform="rotate(-135.197 48.06 7.065)"/></g><g filter="url(#h)"><ellipse cx="49.208" cy="5.533" fill="#fff" rx="3.715" ry="6.268" transform="rotate(-135.197 49.208 5.533)"/></g><g filter="url(#i)"><ellipse cx="3.715" cy="6.268" fill="#fff" rx="3.715" ry="6.268" transform="rotate(135.197 8.194 25.308)scale(-1 1)"/></g><g filter="url(#j)"><ellipse cx="3.715" cy="6.268" fill="#fff" rx="3.715" ry="6.268" transform="rotate(135.197 7.563 23.032)scale(-1 1)"/></g><g filter="url(#k)"><ellipse cx="3.715" cy="6.268" fill="#fff" rx="3.715" ry="6.268" transform="rotate(-44.803 31.72 -28.306)scale(1 -1)"/></g><g filter="url(#l)"><ellipse cx="3.715" cy="6.268" fill="#fff" rx="3.715" ry="6.268" transform="rotate(135.197 11.95 11.848)scale(-1 1)"/></g><g filter="url(#m)"><ellipse cx="3.715" cy="11.949" fill="#fff" rx="3.715" ry="11.949" transform="rotate(135.197 8.702 20.814)scale(-1 1)"/></g><g filter="url(#n)"><ellipse cx="53.595" cy="15.289" fill="#fff" rx="3.715" ry="11.949" transform="rotate(-135.197 53.595 15.29)"/></g><g filter="url(#o)"><ellipse cx="4.618" cy="21.501" fill="#fff" rx="4.618" ry="21.501" transform="matrix(0 -1 -1 0 59.498 53.277)"/></g></g><path fill="#fff" d="M6.919 0c-9.198 13.166-9.252 33.575 0 46.789h6.215c-9.25-13.214-9.196-33.623 0-46.789zM69.34 0h-6.214c9.198 13.166 9.252 33.575 0 46.789h6.215c9.25-13.214 9.196-33.623 0-46.789"/><defs><filter id="b" width="61.384" height="27.618" x="7.306" y="32.935" color-interpolation-filters="sRGB" filterUnits="userSpaceOnUse"><feFlood flood-opacity="0" result="BackgroundImageFix"/><feBlend in="SourceGraphic" in2="BackgroundImageFix" result="shape"/><feGaussianBlur result="effect1_foregroundBlur_2002_17470" stdDeviation="4.596"/></filter><filter id="c" width="58.495" height="36.43" x="26.935" y="26.565" color-interpolation-filters="sRGB" filterUnits="userSpaceOnUse"><feFlood flood-opacity="0" result="BackgroundImageFix"/><feBlend in="SourceGraphic" in2="BackgroundImageFix" result="shape"/><feGaussianBlur result="effect1_foregroundBlur_2002_17470" stdDeviation="4.596"/></filter><filter id="d" width="58.495" height="36.43" x="-9.446" y="26.565" color-interpolation-filters="sRGB" filterUnits="userSpaceOnUse"><feFlood flood-opacity="0" result="BackgroundImageFix"/><feBlend in="SourceGraphic" in2="BackgroundImageFix" result="shape"/><feGaussianBlur result="effect1_foregroundBlur_2002_17470" stdDeviation="4.596"/></filter><filter id="e" width="28.672" height="28.706" x="32.192" y="15.307" color-interpolation-filters="sRGB" filterUnits="userSpaceOnUse"><feFlood flood-opacity="0" result="BackgroundImageFix"/><feBlend in="SourceGraphic" in2="BackgroundImageFix" result="shape"/><feGaussianBlur result="effect1_foregroundBlur_2002_17470" stdDeviation="4.596"/></filter><filter id="f" width="28.672" height="28.706" x="34.107" y="11.861" color-interpolation-filters="sRGB" filterUnits="userSpaceOnUse"><feFlood flood-opacity="0" result="BackgroundImageFix"/><feBlend in="SourceGraphic" in2="BackgroundImageFix" result="shape"/><feGaussianBlur result="effect1_foregroundBlur_2002_17470" stdDeviation="4.596"/></filter><filter id="g" width="28.672" height="28.706" x="33.723" y="-7.288" color-interpolation-filters="sRGB" filterUnits="userSpaceOnUse"><feFlood flood-opacity="0" result="BackgroundImageFix"/><feBlend in="SourceGraphic" in2="BackgroundImageFix" result="shape"/><feGaussianBlur result="effect1_foregroundBlur_2002_17470" stdDeviation="4.596"/></filter><filter id="h" width="28.672" height="28.706" x="34.872" y="-8.819" color-interpolation-filters="sRGB" filterUnits="userSpaceOnUse"><feFlood flood-opacity="0" result="BackgroundImageFix"/><feBlend in="SourceGraphic" in2="BackgroundImageFix" result="shape"/><feGaussianBlur result="effect1_foregroundBlur_2002_17470" stdDeviation="4.596"/></filter><filter id="i" width="28.672" height="28.706" x="15.724" y="16.073" color-interpolation-filters="sRGB" filterUnits="userSpaceOnUse"><feFlood flood-opacity="0" result="BackgroundImageFix"/><feBlend in="SourceGraphic" in2="BackgroundImageFix" result="shape"/><feGaussianBlur result="effect1_foregroundBlur_2002_17470" stdDeviation="4.596"/></filter><filter id="j" width="28.672" height="28.706" x="13.043" y="12.627" color-interpolation-filters="sRGB" filterUnits="userSpaceOnUse"><feFlood flood-opacity="0" result="BackgroundImageFix"/><feBlend in="SourceGraphic" in2="BackgroundImageFix" result="shape"/><feGaussianBlur result="effect1_foregroundBlur_2002_17470" stdDeviation="4.596"/></filter><filter id="k" width="28.672" height="28.706" x="13.043" y="-7.288" color-interpolation-filters="sRGB" filterUnits="userSpaceOnUse"><feFlood flood-opacity="0" result="BackgroundImageFix"/><feBlend in="SourceGraphic" in2="BackgroundImageFix" result="shape"/><feGaussianBlur result="effect1_foregroundBlur_2002_17470" stdDeviation="4.596"/></filter><filter id="l" width="28.672" height="28.706" x="12.661" y="-9.585" color-interpolation-filters="sRGB" filterUnits="userSpaceOnUse"><feFlood flood-opacity="0" result="BackgroundImageFix"/><feBlend in="SourceGraphic" in2="BackgroundImageFix" result="shape"/><feGaussianBlur result="effect1_foregroundBlur_2002_17470" stdDeviation="4.596"/></filter><filter id="m" width="36.034" height="36.133" x="5.742" y=".286" color-interpolation-filters="sRGB" filterUnits="userSpaceOnUse"><feFlood flood-opacity="0" result="BackgroundImageFix"/><feBlend in="SourceGraphic" in2="BackgroundImageFix" result="shape"/><feGaussianBlur result="effect1_foregroundBlur_2002_17470" stdDeviation="4.596"/></filter><filter id="n" width="36.034" height="36.133" x="35.578" y="-2.777" color-interpolation-filters="sRGB" filterUnits="userSpaceOnUse"><feFlood flood-opacity="0" result="BackgroundImageFix"/><feBlend in="SourceGraphic" in2="BackgroundImageFix" result="shape"/><feGaussianBlur result="effect1_foregroundBlur_2002_17470" stdDeviation="4.596"/></filter><filter id="o" width="61.384" height="27.618" x="7.306" y="34.85" color-interpolation-filters="sRGB" filterUnits="userSpaceOnUse"><feFlood flood-opacity="0" result="BackgroundImageFix"/><feBlend in="SourceGraphic" in2="BackgroundImageFix" result="shape"/><feGaussianBlur result="effect1_foregroundBlur_2002_17470" stdDeviation="4.596"/></filter></defs></svg>