<svg xmlns="http://www.w3.org/2000/svg" width="552" height="47" fill="none" viewBox="0 0 552 47"><path fill="#08060e" d="M84.875 0c19.064 0 29.081 8.014 29.081 23.395s-10.017 23.394-29.081 23.394-29.017-8.014-29.017-23.394C55.858 8.014 65.811 0 84.875 0m219.464 0c19.064 0 29.081 8.014 29.081 23.395s-10.017 23.394-29.081 23.394-29.017-8.014-29.017-23.394C275.322 8.014 285.274 0 304.339 0M35.349.775c10.34 0 16.222 5.365 16.222 14.8 0 5.428-2.585 9.436-6.591 11.762l6.785 18.676h-16.48l-4.718-14.67H15.51v14.67H0V.775zm100.062 33.93h27.077v11.308H119.9V.775h15.511zm48.38 0h27.078v11.308h-42.588V.775h15.51zM245.53.774c15.704 0 24.687 7.11 24.687 22.62s-9.048 22.618-24.752 22.618h-28.37V.775zM356.661 31.86l6.592-23.006h17.384l6.979 23.91L393.109.776h15.123l-9.306 45.238h-19.581l-7.496-25.591-7.303 25.59h-19.647L335.594.776h15.381zM432.876.775l18.677 29.405h.129V.775h14.735v45.238h-18.612L428.999 16.48h-.194v29.533h-14.67V.775zM84.875 11.116c-8.983 0-13.184 3.877-13.184 12.279 0 8.4 4.201 12.213 13.184 12.213s13.183-3.748 13.183-12.213-4.2-12.279-13.183-12.279m219.464 0c-8.983 0-13.184 3.877-13.184 12.279 0 8.4 4.201 12.213 13.184 12.213s13.183-3.748 13.183-12.213-4.2-12.279-13.183-12.279m-71.735 23.911h10.729c7.367 0 10.985-3.167 10.985-11.632s-3.618-11.633-10.985-11.633h-10.729zM15.51 20.68h15.445c3.167 0 4.718-1.68 4.718-4.653s-1.551-4.589-4.718-4.589H15.51zM530.998.773c.959 0 1.482 1.118.868 1.855L521.423 15.16c-1.228 1.473-.181 3.711 1.738 3.711h10.101c.959 0 1.482 1.119.868 1.855L513.922 44.98a1.13 1.13 0 0 1-1.738 0l-20.209-24.252c-.614-.736-.09-1.855.869-1.855h10.098c1.917 0 2.967-2.238 1.739-3.711L494.237 2.628c-.614-.737-.09-1.855.868-1.855z"/><mask id="a" width="44" height="46" x="491" y="0" maskUnits="userSpaceOnUse" style="mask-type:alpha"><path fill="#000" d="M530.998.773c.959 0 1.482 1.118.868 1.855L521.423 15.16c-1.228 1.473-.181 3.711 1.738 3.711h10.101c.959 0 1.482 1.119.868 1.855L513.922 44.98a1.13 1.13 0 0 1-1.738 0l-20.209-24.252c-.614-.736-.09-1.855.869-1.855h10.098c1.917 0 2.967-2.238 1.739-3.711L494.237 2.628c-.614-.737-.09-1.855.868-1.855z"/></mask><g mask="url(#a)"><g filter="url(#b)"><ellipse cx="5.397" cy="23.582" fill="#08060e" rx="5.397" ry="23.582" transform="rotate(30.253 306.6 1011.438)scale(-1 1)"/></g><g filter="url(#c)"><ellipse cx="5.397" cy="23.582" fill="#08060e" rx="5.397" ry="23.582" transform="rotate(-149.747 275.94 -71.236)scale(1 -1)"/></g><g filter="url(#d)"><ellipse cx="492.383" cy="1.447" fill="#08060e" rx="3.719" ry="21.831" transform="rotate(-36.093 492.383 1.447)"/></g><g filter="url(#e)"><ellipse cx="498.127" cy="34.105" fill="#08060e" rx="3.719" ry="21.831" transform="rotate(-36.093 498.127 34.105)"/></g><g filter="url(#f)"><ellipse cx="3.719" cy="21.831" fill="#08060e" rx="3.719" ry="21.831" transform="rotate(36.093 296.294 836.434)scale(-1 1)"/></g><g filter="url(#g)"><ellipse cx="3.719" cy="21.831" fill="#08060e" rx="3.719" ry="21.831" transform="rotate(36.093 242.73 842.184)scale(-1 1)"/></g><g filter="url(#h)"><ellipse cx="3.719" cy="21.831" fill="#08060e" rx="3.719" ry="21.831" transform="rotate(36.093 294.57 831.145)scale(-1 1)"/></g><g filter="url(#i)"><ellipse cx="3.719" cy="21.831" fill="#08060e" rx="3.719" ry="21.831" transform="rotate(36.093 241.581 838.659)scale(-1 1)"/></g><g filter="url(#j)"><ellipse cx="494.507" cy="3.026" fill="#08060e" rx="5.397" ry="23.582" transform="rotate(-40.91 494.507 3.026)"/></g><g filter="url(#k)"><ellipse cx="498.179" cy="28.503" fill="#08060e" rx="5.397" ry="23.582" transform="rotate(-35.888 498.179 28.503)"/></g></g><path fill="#08060e" d="M481.842.002c-9.199 13.167-9.252 33.575 0 46.789h6.215c-9.25-13.214-9.197-33.622 0-46.789zm62.421 0h-6.215c9.199 13.167 9.252 33.575 0 46.789h6.215c9.25-13.214 9.196-33.622 0-46.789"/><defs><filter id="b" width="39.32" height="54.894" x="515.141" y="-26.517" color-interpolation-filters="sRGB" filterUnits="userSpaceOnUse"><feFlood flood-opacity="0" result="BackgroundImageFix"/><feBlend in="SourceGraphic" in2="BackgroundImageFix" result="shape"/><feGaussianBlur result="effect1_foregroundBlur_4031_15620" stdDeviation="3.447"/></filter><filter id="c" width="39.32" height="54.894" x="513.993" y="-3.54" color-interpolation-filters="sRGB" filterUnits="userSpaceOnUse"><feFlood flood-opacity="0" result="BackgroundImageFix"/><feBlend in="SourceGraphic" in2="BackgroundImageFix" result="shape"/><feGaussianBlur result="effect1_foregroundBlur_4031_15620" stdDeviation="3.447"/></filter><filter id="d" width="40.206" height="49.343" x="472.28" y="-23.225" color-interpolation-filters="sRGB" filterUnits="userSpaceOnUse"><feFlood flood-opacity="0" result="BackgroundImageFix"/><feBlend in="SourceGraphic" in2="BackgroundImageFix" result="shape"/><feGaussianBlur result="effect1_foregroundBlur_4031_15620" stdDeviation="3.447"/></filter><filter id="e" width="40.206" height="49.343" x="478.024" y="9.433" color-interpolation-filters="sRGB" filterUnits="userSpaceOnUse"><feFlood flood-opacity="0" result="BackgroundImageFix"/><feBlend in="SourceGraphic" in2="BackgroundImageFix" result="shape"/><feGaussianBlur result="effect1_foregroundBlur_4031_15620" stdDeviation="3.447"/></filter><filter id="f" width="40.206" height="49.343" x="513.641" y="-23.225" color-interpolation-filters="sRGB" filterUnits="userSpaceOnUse"><feFlood flood-opacity="0" result="BackgroundImageFix"/><feBlend in="SourceGraphic" in2="BackgroundImageFix" result="shape"/><feGaussianBlur result="effect1_foregroundBlur_4031_15620" stdDeviation="3.447"/></filter><filter id="g" width="40.206" height="49.343" x="506.747" y="9.433" color-interpolation-filters="sRGB" filterUnits="userSpaceOnUse"><feFlood flood-opacity="0" result="BackgroundImageFix"/><feBlend in="SourceGraphic" in2="BackgroundImageFix" result="shape"/><feGaussianBlur result="effect1_foregroundBlur_4031_15620" stdDeviation="3.447"/></filter><filter id="h" width="40.206" height="49.343" x="510.194" y="-23.225" color-interpolation-filters="sRGB" filterUnits="userSpaceOnUse"><feFlood flood-opacity="0" result="BackgroundImageFix"/><feBlend in="SourceGraphic" in2="BackgroundImageFix" result="shape"/><feGaussianBlur result="effect1_foregroundBlur_4031_15620" stdDeviation="3.447"/></filter><filter id="i" width="40.206" height="49.343" x="504.45" y="9.433" color-interpolation-filters="sRGB" filterUnits="userSpaceOnUse"><feFlood flood-opacity="0" result="BackgroundImageFix"/><feBlend in="SourceGraphic" in2="BackgroundImageFix" result="shape"/><feGaussianBlur result="effect1_foregroundBlur_4031_15620" stdDeviation="3.447"/></filter><filter id="j" width="45.741" height="50.132" x="471.636" y="-22.04" color-interpolation-filters="sRGB" filterUnits="userSpaceOnUse"><feFlood flood-opacity="0" result="BackgroundImageFix"/><feBlend in="SourceGraphic" in2="BackgroundImageFix" result="shape"/><feGaussianBlur result="effect1_foregroundBlur_4031_15620" stdDeviation="3.447"/></filter><filter id="k" width="42.792" height="52.524" x="476.782" y="2.241" color-interpolation-filters="sRGB" filterUnits="userSpaceOnUse"><feFlood flood-opacity="0" result="BackgroundImageFix"/><feBlend in="SourceGraphic" in2="BackgroundImageFix" result="shape"/><feGaussianBlur result="effect1_foregroundBlur_4031_15620" stdDeviation="3.447"/></filter></defs></svg>