<svg xmlns="http://www.w3.org/2000/svg" width="77" height="47" fill="none" viewBox="0 0 77 47"><path fill="#fff" d="M56.075.77c.958 0 1.482 1.119.868 1.856L46.5 15.159c-1.228 1.473-.181 3.711 1.738 3.711h10.1c.96 0 1.483 1.118.869 1.855L38.999 44.977a1.13 1.13 0 0 1-1.739 0L17.052 20.725c-.614-.737-.09-1.855.868-1.855h10.1c1.917 0 2.966-2.238 1.738-3.711L19.314 2.626c-.614-.737-.09-1.855.868-1.855z"/><mask id="a" width="44" height="46" x="16" y="0" maskUnits="userSpaceOnUse" style="mask-type:alpha"><path fill="#000" d="M56.075.771c.958 0 1.482 1.118.868 1.855L46.5 15.159c-1.228 1.473-.181 3.711 1.738 3.711h10.1c.96 0 1.483 1.118.869 1.855L38.999 44.977a1.132 1.132 0 0 1-1.739 0L17.052 20.725c-.614-.737-.09-1.855.868-1.855h10.1c1.917 0 2.966-2.238 1.738-3.711L19.314 2.626c-.614-.737-.09-1.855.868-1.855z"/></mask><g mask="url(#a)"><g filter="url(#b)"><ellipse cx="5.397" cy="23.582" fill="#fff" rx="5.397" ry="23.582" transform="rotate(-149.747 35.95 -18.69)scale(1 -1)"/></g><g filter="url(#c)"><ellipse cx="5.397" cy="23.582" fill="#fff" rx="5.397" ry="23.582" transform="rotate(30.253 26.07 142.356)scale(-1 1)"/></g><g filter="url(#d)"><ellipse cx="17.46" cy="1.444" fill="#fff" rx="3.719" ry="21.831" transform="rotate(-36.093 17.46 1.444)"/></g><g filter="url(#e)"><ellipse cx="23.204" cy="34.102" fill="#fff" rx="3.719" ry="21.831" transform="rotate(-36.093 23.204 34.102)"/></g><g filter="url(#f)"><ellipse cx="3.719" cy="21.831" fill="#fff" rx="3.719" ry="21.831" transform="rotate(36.093 58.836 107.612)scale(-1 1)"/></g><g filter="url(#g)"><ellipse cx="3.719" cy="21.831" fill="#fff" rx="3.719" ry="21.831" transform="rotate(36.093 5.272 113.363)scale(-1 1)"/></g><g filter="url(#h)"><ellipse cx="3.719" cy="21.831" fill="#fff" rx="3.719" ry="21.831" transform="rotate(36.093 57.113 102.323)scale(-1 1)"/></g><g filter="url(#i)"><ellipse cx="3.719" cy="21.831" fill="#fff" rx="3.719" ry="21.831" transform="rotate(36.093 4.123 109.836)scale(-1 1)"/></g><g filter="url(#j)"><ellipse cx="19.584" cy="3.024" fill="#fff" rx="5.397" ry="23.582" transform="rotate(-40.91 19.584 3.024)"/></g><g filter="url(#k)"><ellipse cx="23.255" cy="28.501" fill="#fff" rx="5.397" ry="23.582" transform="rotate(-35.888 23.255 28.5)"/></g></g><path fill="#fff" d="M6.919 0c-9.198 13.166-9.252 33.575 0 46.789h6.215c-9.25-13.214-9.196-33.623 0-46.789zM69.34 0h-6.215c9.199 13.166 9.253 33.575 0 46.789h6.215c9.25-13.214 9.196-33.623 0-46.789"/><defs><filter id="b" width="39.32" height="54.894" x="40.218" y="-26.519" color-interpolation-filters="sRGB" filterUnits="userSpaceOnUse"><feFlood flood-opacity="0" result="BackgroundImageFix"/><feBlend in="SourceGraphic" in2="BackgroundImageFix" result="shape"/><feGaussianBlur result="effect1_foregroundBlur_2002_17428" stdDeviation="3.447"/></filter><filter id="c" width="39.32" height="54.894" x="39.07" y="-3.542" color-interpolation-filters="sRGB" filterUnits="userSpaceOnUse"><feFlood flood-opacity="0" result="BackgroundImageFix"/><feBlend in="SourceGraphic" in2="BackgroundImageFix" result="shape"/><feGaussianBlur result="effect1_foregroundBlur_2002_17428" stdDeviation="3.447"/></filter><filter id="d" width="40.206" height="49.343" x="-2.643" y="-23.227" color-interpolation-filters="sRGB" filterUnits="userSpaceOnUse"><feFlood flood-opacity="0" result="BackgroundImageFix"/><feBlend in="SourceGraphic" in2="BackgroundImageFix" result="shape"/><feGaussianBlur result="effect1_foregroundBlur_2002_17428" stdDeviation="3.447"/></filter><filter id="e" width="40.206" height="49.343" x="3.101" y="9.431" color-interpolation-filters="sRGB" filterUnits="userSpaceOnUse"><feFlood flood-opacity="0" result="BackgroundImageFix"/><feBlend in="SourceGraphic" in2="BackgroundImageFix" result="shape"/><feGaussianBlur result="effect1_foregroundBlur_2002_17428" stdDeviation="3.447"/></filter><filter id="f" width="40.206" height="49.343" x="38.718" y="-23.227" color-interpolation-filters="sRGB" filterUnits="userSpaceOnUse"><feFlood flood-opacity="0" result="BackgroundImageFix"/><feBlend in="SourceGraphic" in2="BackgroundImageFix" result="shape"/><feGaussianBlur result="effect1_foregroundBlur_2002_17428" stdDeviation="3.447"/></filter><filter id="g" width="40.206" height="49.343" x="31.824" y="9.431" color-interpolation-filters="sRGB" filterUnits="userSpaceOnUse"><feFlood flood-opacity="0" result="BackgroundImageFix"/><feBlend in="SourceGraphic" in2="BackgroundImageFix" result="shape"/><feGaussianBlur result="effect1_foregroundBlur_2002_17428" stdDeviation="3.447"/></filter><filter id="h" width="40.206" height="49.343" x="35.271" y="-23.227" color-interpolation-filters="sRGB" filterUnits="userSpaceOnUse"><feFlood flood-opacity="0" result="BackgroundImageFix"/><feBlend in="SourceGraphic" in2="BackgroundImageFix" result="shape"/><feGaussianBlur result="effect1_foregroundBlur_2002_17428" stdDeviation="3.447"/></filter><filter id="i" width="40.206" height="49.343" x="29.527" y="9.431" color-interpolation-filters="sRGB" filterUnits="userSpaceOnUse"><feFlood flood-opacity="0" result="BackgroundImageFix"/><feBlend in="SourceGraphic" in2="BackgroundImageFix" result="shape"/><feGaussianBlur result="effect1_foregroundBlur_2002_17428" stdDeviation="3.447"/></filter><filter id="j" width="45.741" height="50.132" x="-3.286" y="-22.042" color-interpolation-filters="sRGB" filterUnits="userSpaceOnUse"><feFlood flood-opacity="0" result="BackgroundImageFix"/><feBlend in="SourceGraphic" in2="BackgroundImageFix" result="shape"/><feGaussianBlur result="effect1_foregroundBlur_2002_17428" stdDeviation="3.447"/></filter><filter id="k" width="42.792" height="52.524" x="1.859" y="2.239" color-interpolation-filters="sRGB" filterUnits="userSpaceOnUse"><feFlood flood-opacity="0" result="BackgroundImageFix"/><feBlend in="SourceGraphic" in2="BackgroundImageFix" result="shape"/><feGaussianBlur result="effect1_foregroundBlur_2002_17428" stdDeviation="3.447"/></filter></defs></svg>