<svg xmlns="http://www.w3.org/2000/svg" width="321" height="47" fill="none" viewBox="0 0 321 47"><path fill="#08060e" d="M28.5 33.347 40.262.776h16.09L38.518 46.013h-20.68L0 .776h16.544zm48.728 12.666h-15.51V.776h15.51zm56.331-34.122h-17.384v34.122h-15.51V11.89H83.28V.776h50.279zm50.709-.129h-29.146v6.074h28.693V28.5h-28.693v6.527h29.985v10.986h-45.495V.776h44.656zm34.102 6.074h17.385V28.5H218.37v17.513h-11.115V28.5h-17.384V17.836h17.384V.776h11.115z"/><path fill="#6553ff" d="M284.425 45.71c-.664.844-2.021.374-2.021-.699V34.708a2.26 2.26 0 0 0-2.262-2.262h-11.376c-.92 0-1.456-1.04-.92-1.788l7.479-10.471c1.071-1.498 0-3.578-1.841-3.578h-13.768c-.92 0-1.456-1.04-.92-1.788l9.696-13.576c.214-.297.556-.474.92-.474h28.894c.92 0 1.456 1.04.92 1.788l-7.479 10.472c-1.071 1.497 0 3.578 1.841 3.578h11.377a1.13 1.13 0 0 1 .889 1.83l-21.427 27.272z"/><mask id="a" width="49" height="47" x="258" y="0" maskUnits="userSpaceOnUse" style="mask-type:alpha"><path fill="#833bff" d="M284.425 45.71c-.664.844-2.021.374-2.021-.699V34.708a2.26 2.26 0 0 0-2.262-2.262h-11.376c-.92 0-1.456-1.04-.92-1.788l7.479-10.471c1.071-1.498 0-3.578-1.841-3.578h-13.768c-.92 0-1.456-1.04-.92-1.788l9.696-13.576c.214-.297.556-.474.92-.474h28.894c.92 0 1.456 1.04.92 1.788l-7.479 10.472c-1.071 1.497 0 3.578 1.841 3.578h11.377a1.13 1.13 0 0 1 .889 1.83l-21.427 27.272z"/></mask><g mask="url(#a)"><g filter="url(#b)"><ellipse cx="5.508" cy="14.704" fill="#eee6ff" rx="5.508" ry="14.704" transform="rotate(89.814 110.81 143.56)scale(1 -1)"/></g><g filter="url(#c)"><ellipse cx="10.399" cy="29.851" fill="#eee6ff" rx="10.399" ry="29.851" transform="matrix(.00324 1 1 -.00324 219.15 8.654)"/></g><g filter="url(#d)"><ellipse cx="5.508" cy="30.487" fill="#560cff" rx="5.508" ry="30.487" transform="matrix(.00325 1 1 -.00325 218.01 12.09)"/></g><g filter="url(#e)"><ellipse cx="5.508" cy="30.599" fill="#560cff" rx="5.508" ry="30.599" transform="rotate(89.814 96.209 126.71)scale(1 -1)"/></g><g filter="url(#f)"><ellipse cx="5.508" cy="30.599" fill="#560cff" rx="5.508" ry="30.599" transform="rotate(89.814 96.399 128.053)scale(1 -1)"/></g><g filter="url(#g)"><ellipse cx="14.072" cy="22.078" fill="#eee6ff" rx="14.072" ry="22.078" transform="rotate(93.35 153.382 170.772)scale(-1 1)"/></g><g filter="url(#h)"><ellipse cx="3.47" cy="21.501" fill="#560cff" rx="3.47" ry="21.501" transform="rotate(89.009 157.555 179.47)scale(-1 1)"/></g><g filter="url(#i)"><ellipse cx="3.47" cy="21.501" fill="#560cff" rx="3.47" ry="21.501" transform="rotate(89.009 157.555 179.47)scale(-1 1)"/></g><g filter="url(#j)"><ellipse cx="258.865" cy="9.743" fill="#560cff" rx="4.407" ry="29.108" transform="rotate(39.51 258.865 9.743)"/></g><g filter="url(#k)"><ellipse cx="306.002" cy="-5.321" fill="#560cff" rx="4.407" ry="29.108" transform="rotate(37.892 306.002 -5.32)"/></g><g filter="url(#l)"><ellipse cx="299.353" cy="10.59" fill="#00ffd0" rx="8.281" ry="12.492" transform="rotate(37.892 299.353 10.59)"/></g><g filter="url(#m)"><ellipse cx="256.6" cy="39.103" fill="#560cff" rx="4.407" ry="29.108" transform="rotate(37.892 256.6 39.103)"/></g><g filter="url(#n)"><ellipse cx="256.6" cy="39.103" fill="#560cff" rx="4.407" ry="29.108" transform="rotate(37.892 256.6 39.103)"/></g><g filter="url(#o)"><ellipse cx="293.912" cy="30.509" fill="#560cff" rx="4.683" ry="29.108" transform="rotate(37.892 293.912 30.509)"/></g><g filter="url(#p)"><ellipse cx="298.386" cy="33.772" fill="#00ffd0" rx="8.042" ry="21.066" transform="rotate(37.892 298.386 33.772)"/></g></g><path fill="#08060e" d="M251.193 0c-9.198 13.166-9.252 33.575 0 46.789h6.215c-9.25-13.214-9.197-33.623 0-46.789zm62.424 0h-6.215c9.198 13.166 9.252 33.575 0 46.789h6.215c9.25-13.214 9.196-33.623 0-46.789"/><defs><filter id="b" width="60.045" height="41.653" x="238.71" y="16.92" color-interpolation-filters="sRGB" filterUnits="userSpaceOnUse"><feFlood flood-opacity="0" result="BackgroundImageFix"/><feBlend in="SourceGraphic" in2="BackgroundImageFix" result="shape"/><feGaussianBlur result="effect1_foregroundBlur_2002_16374" stdDeviation="7.659"/></filter><filter id="c" width="90.34" height="51.437" x="203.866" y="-6.762" color-interpolation-filters="sRGB" filterUnits="userSpaceOnUse"><feFlood flood-opacity="0" result="BackgroundImageFix"/><feBlend in="SourceGraphic" in2="BackgroundImageFix" result="shape"/><feGaussianBlur result="effect1_foregroundBlur_2002_16374" stdDeviation="7.659"/></filter><filter id="d" width="79.355" height="29.4" x="208.838" y="2.801" color-interpolation-filters="sRGB" filterUnits="userSpaceOnUse"><feFlood flood-opacity="0" result="BackgroundImageFix"/><feBlend in="SourceGraphic" in2="BackgroundImageFix" result="shape"/><feGaussianBlur result="effect1_foregroundBlur_2002_16374" stdDeviation="4.596"/></filter><filter id="e" width="79.579" height="29.4" x="213.434" y="20.8" color-interpolation-filters="sRGB" filterUnits="userSpaceOnUse"><feFlood flood-opacity="0" result="BackgroundImageFix"/><feBlend in="SourceGraphic" in2="BackgroundImageFix" result="shape"/><feGaussianBlur result="effect1_foregroundBlur_2002_16374" stdDeviation="4.596"/></filter><filter id="f" width="79.579" height="29.4" x="214.966" y="21.949" color-interpolation-filters="sRGB" filterUnits="userSpaceOnUse"><feFlood flood-opacity="0" result="BackgroundImageFix"/><feBlend in="SourceGraphic" in2="BackgroundImageFix" result="shape"/><feGaussianBlur result="effect1_foregroundBlur_2002_16374" stdDeviation="4.596"/></filter><filter id="g" width="74.749" height="58.852" x="274.235" y="-17.13" color-interpolation-filters="sRGB" filterUnits="userSpaceOnUse"><feFlood flood-opacity="0" result="BackgroundImageFix"/><feBlend in="SourceGraphic" in2="BackgroundImageFix" result="shape"/><feGaussianBlur result="effect1_foregroundBlur_2002_16374" stdDeviation="7.659"/></filter><filter id="h" width="61.377" height="25.362" x="282.027" y="3.055" color-interpolation-filters="sRGB" filterUnits="userSpaceOnUse"><feFlood flood-opacity="0" result="BackgroundImageFix"/><feBlend in="SourceGraphic" in2="BackgroundImageFix" result="shape"/><feGaussianBlur result="effect1_foregroundBlur_2002_16374" stdDeviation="4.596"/></filter><filter id="i" width="61.377" height="25.362" x="282.027" y="3.055" color-interpolation-filters="sRGB" filterUnits="userSpaceOnUse"><feFlood flood-opacity="0" result="BackgroundImageFix"/><feBlend in="SourceGraphic" in2="BackgroundImageFix" result="shape"/><feGaussianBlur result="effect1_foregroundBlur_2002_16374" stdDeviation="4.596"/></filter><filter id="j" width="56.045" height="63.649" x="230.843" y="-22.082" color-interpolation-filters="sRGB" filterUnits="userSpaceOnUse"><feFlood flood-opacity="0" result="BackgroundImageFix"/><feBlend in="SourceGraphic" in2="BackgroundImageFix" result="shape"/><feGaussianBlur result="effect1_foregroundBlur_2002_16374" stdDeviation="4.596"/></filter><filter id="k" width="54.814" height="64.646" x="278.595" y="-37.644" color-interpolation-filters="sRGB" filterUnits="userSpaceOnUse"><feFlood flood-opacity="0" result="BackgroundImageFix"/><feBlend in="SourceGraphic" in2="BackgroundImageFix" result="shape"/><feGaussianBlur result="effect1_foregroundBlur_2002_16374" stdDeviation="4.596"/></filter><filter id="l" width="38.539" height="40.573" x="280.083" y="-9.697" color-interpolation-filters="sRGB" filterUnits="userSpaceOnUse"><feFlood flood-opacity="0" result="BackgroundImageFix"/><feBlend in="SourceGraphic" in2="BackgroundImageFix" result="shape"/><feGaussianBlur result="effect1_foregroundBlur_2002_16374" stdDeviation="4.596"/></filter><filter id="m" width="54.814" height="64.646" x="229.193" y="6.78" color-interpolation-filters="sRGB" filterUnits="userSpaceOnUse"><feFlood flood-opacity="0" result="BackgroundImageFix"/><feBlend in="SourceGraphic" in2="BackgroundImageFix" result="shape"/><feGaussianBlur result="effect1_foregroundBlur_2002_16374" stdDeviation="4.596"/></filter><filter id="n" width="54.814" height="64.646" x="229.193" y="6.78" color-interpolation-filters="sRGB" filterUnits="userSpaceOnUse"><feFlood flood-opacity="0" result="BackgroundImageFix"/><feBlend in="SourceGraphic" in2="BackgroundImageFix" result="shape"/><feGaussianBlur result="effect1_foregroundBlur_2002_16374" stdDeviation="4.596"/></filter><filter id="o" width="54.9" height="64.687" x="266.462" y="-1.835" color-interpolation-filters="sRGB" filterUnits="userSpaceOnUse"><feFlood flood-opacity="0" result="BackgroundImageFix"/><feBlend in="SourceGraphic" in2="BackgroundImageFix" result="shape"/><feGaussianBlur result="effect1_foregroundBlur_2002_16374" stdDeviation="4.596"/></filter><filter id="p" width="47.21" height="53.077" x="274.781" y="7.234" color-interpolation-filters="sRGB" filterUnits="userSpaceOnUse"><feFlood flood-opacity="0" result="BackgroundImageFix"/><feBlend in="SourceGraphic" in2="BackgroundImageFix" result="shape"/><feGaussianBlur result="effect1_foregroundBlur_2002_16374" stdDeviation="4.596"/></filter></defs></svg>