<svg xmlns="http://www.w3.org/2000/svg" width="283" height="47" fill="none" viewBox="0 0 283 47"><path fill="#08060e" d="M85.24 0c19.065 0 29.081 8.014 29.081 23.395s-10.017 23.393-29.08 23.393c-19.065 0-29.017-8.013-29.017-23.393S66.176 0 85.24 0m133.166 0c-9.196 13.166-9.25 33.575 0 46.788h-6.215c-9.252-13.213-9.198-33.622 0-46.788zm56.976 0c9.195 13.166 9.249 33.575 0 46.788h-6.215c9.252-13.213 9.198-33.622 0-46.788zm-31.596.064c12.886 0 23.33 10.446 23.33 23.33 0 12.885-10.446 23.33-23.33 23.33s-23.33-10.445-23.33-23.33S230.902.065 243.786.065M28.5 33.347 40.262.775h16.091L38.518 46.013h-20.68L0 .775h16.544zm107.277 12.666h-15.509V.775h15.509zM172.075.775c15.704 0 24.688 7.11 24.688 22.62s-9.049 22.618-24.752 22.618h-28.37V.775zm85.923 12.82a1.134 1.134 0 0 0-1.915-.261l-20.181 24.75a1.134 1.134 0 0 0 .461 1.768q3.134 1.252 7.423 1.25c10.588 0 15.943-5.687 15.943-17.707 0-3.949-.579-7.207-1.731-9.8M85.24 11.115c-8.982 0-13.183 3.878-13.183 12.28 0 8.4 4.2 12.213 13.183 12.213s13.184-3.748 13.184-12.213-4.2-12.28-13.184-12.28m73.91 23.912h10.728c7.367 0 10.986-3.167 10.986-11.632s-3.619-11.633-10.986-11.633H159.15zm84.636-29.275c-10.648 0-15.943 5.687-15.943 17.643 0 3.963.578 7.238 1.732 9.846.343.776 1.381.92 1.915.263l20.145-24.751a1.134 1.134 0 0 0-.464-1.77c-2.083-.825-4.546-1.231-7.385-1.231"/></svg>