<svg xmlns="http://www.w3.org/2000/svg" width="78" height="47" fill="none" viewBox="0 0 78 47"><path fill="#08060e" d="M13.134 0c-9.196 13.166-9.25 33.575 0 46.788H6.919C-2.333 33.575-2.28 13.166 6.919 0zm56.975 0c9.196 13.166 9.25 33.575 0 46.788h-6.214c9.251-13.213 9.198-33.622 0-46.788zM38.515.064c12.886 0 23.33 10.446 23.33 23.33 0 12.885-10.446 23.33-23.33 23.33-12.885 0-23.33-10.445-23.33-23.33S25.63.065 38.515.065m14.21 13.53a1.134 1.134 0 0 0-1.915-.26l-20.18 24.75a1.134 1.134 0 0 0 .46 1.768q3.134 1.252 7.425 1.25c10.587 0 15.943-5.687 15.943-17.707 0-3.949-.58-7.207-1.732-9.8m-14.21-7.842c-10.649 0-15.944 5.687-15.944 17.643 0 3.963.578 7.238 1.733 9.846.342.776 1.38.92 1.915.263L46.362 8.753a1.133 1.133 0 0 0-.463-1.77c-2.083-.825-4.545-1.231-7.384-1.231"/></svg>