<svg xmlns="http://www.w3.org/2000/svg" width="382" height="47" fill="none" viewBox="0 0 382 47"><path fill="#08060e" d="M217.056 0c17.771 0 24.945 4.588 24.945 15.187v.13h-15.445v-.13c0-3.748-1.939-5.17-9.758-5.17-7.82 0-10.211 1.422-10.211 3.942 0 2.197 1.745 3.037 5.816 3.36l13.054.97c12.279.905 17.32 4.847 17.32 13.313 0 9.758-7.497 15.187-25.979 15.187-18.483 0-26.303-4.783-26.303-15.898v-.065h15.704v.065c0 3.748 2.262 5.752 10.599 5.752s10.275-1.552 10.275-3.943c0-2.132-1.422-3.102-4.524-3.36l-13.183-1.034c-13.959-1.099-18.224-5.364-18.224-13.507C191.142 4.976 199.284 0 217.056 0M28.5 33.347 40.262.775h16.091L38.518 46.013h-20.68L0 .775h16.544zm48.728 12.666h-15.51V.775h15.51zM133.56 11.89h-17.387v34.122h-15.51V11.89H83.28V.775h50.281zm50.709-.13h-29.146v6.076h28.693V28.5h-28.693v6.526h29.985v10.987H139.61V.775h44.659zM296.804.776v11.116H279.42v34.122h-15.511V11.89h-17.384V.775z"/><path fill="#00ff74" d="M342.076 42.977a1.132 1.132 0 0 1-1.653.36L321.275 29.41a1.13 1.13 0 0 1-.465-.916V11.71a1.131 1.131 0 0 1 1.796-.916l11.712 8.518a2.263 2.263 0 0 0 3.303-.72l9.7-17.244c.2-.355.577-.577.987-.577h15.574c.866 0 1.411.933.987 1.687z"/><mask id="a" width="46" height="44" x="320" y="0" maskUnits="userSpaceOnUse" style="mask-type:alpha"><path fill="#000" d="M342.076 42.977a1.132 1.132 0 0 1-1.653.36l-19.148-13.928a1.13 1.13 0 0 1-.465-.915V11.709a1.132 1.132 0 0 1 1.796-.916l11.712 8.518a2.263 2.263 0 0 0 3.303-.72l9.7-17.244c.2-.355.577-.577.987-.577h15.574c.866 0 1.411.933.987 1.687l-22.793 40.517z"/></mask><g mask="url(#a)"><g filter="url(#b)"><ellipse cx="14.031" cy="3.391" fill="#00d0c7" rx="14.031" ry="3.391" transform="rotate(130.547 177.315 79.93)scale(1 -1)"/></g><g filter="url(#c)"><ellipse cx="14.031" cy="6.087" fill="#00d0c7" rx="14.031" ry="6.087" transform="rotate(53.967 130.871 349.99)scale(-1 1)"/></g><g filter="url(#d)"><ellipse cx="327.252" cy="12.965" fill="#03ff00" rx="6.374" ry="5.551" transform="rotate(23.13 327.252 12.965)"/></g><g filter="url(#e)"><ellipse cx="361.584" cy="16.721" fill="#03ff00" rx="5.615" ry="24.534" transform="rotate(23.13 361.584 16.72)"/></g><g filter="url(#f)"><ellipse cx="4.985" cy="10.069" fill="#6effe1" rx="4.985" ry="10.069" transform="rotate(135 177.704 80.468)scale(-1 1)"/></g></g><path fill="#08060e" d="M312.23.003c-9.198 13.166-9.252 33.575 0 46.789h6.215c-9.25-13.214-9.196-33.623 0-46.789zm62.421 0h-6.215c9.198 13.166 9.252 33.575 0 46.789h6.215c9.25-13.214 9.196-33.623 0-46.789"/><defs><filter id="b" width="37.343" height="40.161" x="328.102" y="-10.063" color-interpolation-filters="sRGB" filterUnits="userSpaceOnUse"><feFlood flood-opacity="0" result="BackgroundImageFix"/><feBlend in="SourceGraphic" in2="BackgroundImageFix" result="shape"/><feGaussianBlur result="effect1_foregroundBlur_2002_16432" stdDeviation="4.596"/></filter><filter id="c" width="37.605" height="42.185" x="304.94" y="9.418" color-interpolation-filters="sRGB" filterUnits="userSpaceOnUse"><feFlood flood-opacity="0" result="BackgroundImageFix"/><feBlend in="SourceGraphic" in2="BackgroundImageFix" result="shape"/><feGaussianBlur result="effect1_foregroundBlur_2002_16432" stdDeviation="4.596"/></filter><filter id="d" width="30.894" height="29.756" x="311.805" y="-1.913" color-interpolation-filters="sRGB" filterUnits="userSpaceOnUse"><feFlood flood-opacity="0" result="BackgroundImageFix"/><feBlend in="SourceGraphic" in2="BackgroundImageFix" result="shape"/><feGaussianBlur result="effect1_foregroundBlur_2002_16432" stdDeviation="4.596"/></filter><filter id="e" width="40.253" height="63.725" x="341.458" y="-15.142" color-interpolation-filters="sRGB" filterUnits="userSpaceOnUse"><feFlood flood-opacity="0" result="BackgroundImageFix"/><feBlend in="SourceGraphic" in2="BackgroundImageFix" result="shape"/><feGaussianBlur result="effect1_foregroundBlur_2002_16432" stdDeviation="4.596"/></filter><filter id="f" width="34.276" height="34.275" x="339.525" y="-16.072" color-interpolation-filters="sRGB" filterUnits="userSpaceOnUse"><feFlood flood-opacity="0" result="BackgroundImageFix"/><feBlend in="SourceGraphic" in2="BackgroundImageFix" result="shape"/><feGaussianBlur result="effect1_foregroundBlur_2002_16432" stdDeviation="4.596"/></filter></defs></svg>